<svg width="207" height="52" viewBox="0 0 207 52" fill="none" xmlns="http://www.w3.org/2000/svg">
<path d="M3.99512 22.5C2.06212 22.5 0.495117 24.067 0.495117 26C0.495117 27.933 2.06212 29.5 3.99512 29.5V22.5ZM205.48 28.4749C206.847 27.108 206.847 24.892 205.48 23.5251L183.206 1.25126C181.839 -0.115572 179.623 -0.115572 178.256 1.25126C176.89 2.6181 176.89 4.83418 178.256 6.20101L198.055 26L178.256 45.799C176.89 47.1658 176.89 49.3819 178.256 50.7487C179.623 52.1156 181.839 52.1156 183.206 50.7487L205.48 28.4749ZM3.99512 29.5H203.005V22.5H3.99512V29.5Z" fill="white"/>
</svg>
