<svg width="55" height="55" viewBox="0 0 55 55" fill="none" xmlns="http://www.w3.org/2000/svg">
<path d="M10.0427 0C4.47947 0 0 4.47947 0 10.0426V44.9573C0 50.5205 4.47947 54.9999 10.0427 54.9999H28.9661V33.4984H23.2805V25.7572H28.9661V19.1434C28.9661 13.9473 32.3255 9.1764 40.0641 9.1764C43.1973 9.1764 45.5143 9.4772 45.5143 9.4772L45.332 16.7063C45.332 16.7063 42.9691 16.6839 40.3906 16.6839C37.6 16.6839 37.1525 17.9697 37.1525 20.1043V25.7572H45.5537L45.1877 33.4985H37.1525V55H44.9573C50.5205 55 55 50.5205 55 44.9573V10.0427C55 4.47952 50.5205 5.49999e-05 44.9573 5.49999e-05H10.0426L10.0427 0Z" fill="white" fill-opacity="0.6"/>
</svg>
