<svg width="55" height="55" viewBox="0 0 55 55" fill="none" xmlns="http://www.w3.org/2000/svg">
<path fill-rule="evenodd" clip-rule="evenodd" d="M0.458253 4.97668C0.458253 3.77832 0.934299 2.62904 1.78167 1.78167C2.62903 0.934304 3.77831 0.458258 4.97667 0.458258H50.0183C50.6121 0.457288 51.2004 0.573463 51.7493 0.80013C52.2982 1.0268 52.797 1.35951 53.2172 1.77921C53.6373 2.19891 53.9706 2.69737 54.1978 3.24603C54.4251 3.7947 54.5419 4.3828 54.5416 4.97668V50.0183C54.5422 50.6122 54.4258 51.2005 54.1988 51.7495C53.9719 52.2984 53.6389 52.7972 53.219 53.2173C52.7991 53.6374 52.3005 53.9707 51.7517 54.1979C51.2029 54.4251 50.6147 54.5419 50.0207 54.5416H4.97667C4.3831 54.5416 3.79534 54.4246 3.24698 54.1974C2.69862 53.9702 2.2004 53.6371 1.7808 53.2173C1.36119 52.7975 1.02842 52.2991 0.801491 51.7506C0.574564 51.2021 0.45793 50.6143 0.458253 50.0207V4.97668ZM21.8654 21.0788H29.1888V24.7564C30.2459 22.6423 32.95 20.7395 37.0137 20.7395C44.8041 20.7395 46.6503 24.9506 46.6503 32.6772V46.9896H38.7665V34.4373C38.7665 30.0369 37.7094 27.554 35.0249 27.554C31.3005 27.554 29.7518 30.2311 29.7518 34.4373V46.9896H21.8654V21.0788ZM8.34459 46.6528H16.2309V20.7395H8.34459V46.6503V46.6528ZM17.3593 12.2878C17.3742 12.963 17.254 13.6344 17.0059 14.2626C16.7578 14.8907 16.3867 15.463 15.9144 15.9458C15.4421 16.4286 14.8781 16.8123 14.2555 17.0742C13.633 17.336 12.9644 17.471 12.289 17.471C11.6136 17.471 10.945 17.336 10.3224 17.0742C9.69987 16.8123 9.13589 16.4286 8.6636 15.9458C8.19131 15.463 7.82021 14.8907 7.57208 14.2626C7.32395 13.6344 7.2038 12.963 7.21867 12.2878C7.24786 10.9624 7.79487 9.70108 8.74255 8.77403C9.69024 7.84698 10.9633 7.32787 12.289 7.32787C13.6147 7.32787 14.8877 7.84698 15.8354 8.77403C16.7831 9.70108 17.3301 10.9624 17.3593 12.2878Z" fill="white" fill-opacity="0.6"/>
</svg>
