<svg width="100" height="62" viewBox="0 0 100 62" fill="none" xmlns="http://www.w3.org/2000/svg">
<path fill-rule="evenodd" clip-rule="evenodd" d="M3.24675 61.039C1.45362 61.039 0 59.5853 0 57.7922V22.0555C0 15.6736 3.09995 10.2973 8.62583 5.99777L8.63818 5.98821C13.9089 1.92772 20.4129 0 27.9221 0C35.3633 0 41.8517 1.93314 47.1847 5.97196L47.1978 5.98192C52.7511 10.232 55.8442 15.6188 55.8442 22.0555V53.5602C55.8442 54.914 55.0041 56.1257 53.7364 56.6007L42.4392 60.8326C42.075 60.9691 41.6892 61.039 41.3003 61.039H40.7057C38.9125 61.039 37.4589 59.5853 37.4589 57.7922V18.858C37.4589 16.0876 36.5625 14.5937 35.1614 13.6615C35.1469 13.6519 35.1324 13.6421 35.1181 13.6322C33.3009 12.3806 30.9629 11.6659 27.9221 11.6659C24.883 11.6659 22.5141 12.38 20.6467 13.6459L20.6433 13.6481C19.2779 14.5712 18.3852 16.0663 18.3852 18.858V57.7922C18.3852 59.5853 16.9316 61.039 15.1385 61.039H3.24675ZM18.8249 10.9584C16.3673 12.6198 15.1385 15.253 15.1385 18.858V57.7922H3.24675V22.0555C3.24675 16.8831 5.70438 12.3847 10.6196 8.56023C15.2178 5.01791 20.9852 3.24675 27.9221 3.24675C34.7796 3.24675 40.5471 5.01791 45.2245 8.56023C50.1398 12.322 52.5974 16.8204 52.5974 22.0555V53.5602L41.3003 57.7922H40.7057V18.858C40.7057 15.253 39.457 12.6198 36.9598 10.9584C34.5022 9.26556 31.4896 8.41917 27.9221 8.41917C24.3546 8.41917 21.3222 9.26556 18.8249 10.9584Z" fill="white" fill-opacity="0.5"/>
<path fill-rule="evenodd" clip-rule="evenodd" d="M96.7535 61.039C98.5466 61.039 100 59.5853 100 57.7922V22.0555C100 15.6736 96.9003 10.2973 91.3744 5.99777L91.3621 5.98821C86.0913 1.92772 79.5874 0 72.0782 0C64.6369 0 58.1486 1.93314 52.8155 5.97196L52.8025 5.98192C47.2492 10.232 44.1561 15.6188 44.1561 22.0555V53.5602C44.1561 54.914 44.9961 56.1257 46.2639 56.6007L57.561 60.8326C57.9252 60.9691 58.311 61.039 58.7 61.039H59.2946C61.0877 61.039 62.5413 59.5853 62.5413 57.7922V18.858C62.5413 16.0876 63.4378 14.5937 64.8389 13.6615C64.8534 13.6519 64.8678 13.6421 64.8822 13.6322C66.6993 12.3806 69.0373 11.6659 72.0782 11.6659C75.1172 11.6659 77.4861 12.38 79.3536 13.6459L79.3569 13.6481C80.7223 14.5712 81.615 16.0663 81.615 18.858V57.7922C81.615 59.5853 83.0686 61.039 84.8618 61.039H96.7535ZM81.1753 10.9584C83.633 12.6198 84.8618 15.253 84.8618 18.858V57.7922H96.7535V22.0555C96.7535 16.8831 94.2959 12.3847 89.3806 8.56023C84.7825 5.01791 79.015 3.24675 72.0782 3.24675C65.2206 3.24675 59.4531 5.01791 54.7757 8.56023C49.8605 12.322 47.4028 16.8204 47.4028 22.0555V53.5602L58.7 57.7922H59.2946V18.858C59.2946 15.253 60.5432 12.6198 63.0405 10.9584C65.4981 9.26556 68.5106 8.41917 72.0782 8.41917C75.6457 8.41917 78.6781 9.26556 81.1753 10.9584Z" fill="white" fill-opacity="0.5"/>
</svg>
