<svg width="52" height="42" viewBox="0 0 52 42" fill="none" xmlns="http://www.w3.org/2000/svg">
<path fill-rule="evenodd" clip-rule="evenodd" d="M50.8288 40.8952C51.6052 39.8277 50.8288 38.1502 49.1207 37.0827C49.1207 37.0827 7.71162 3.07478 5.27884 1.39725C2.84607 -0.280268 1.13794 -0.642455 0.309759 1.39725C-0.518418 3.43696 2.06965 4.67604 2.84607 5.32417C3.62248 5.97231 46.6879 40.8952 46.6879 40.8952C49.1724 42.7252 50.0524 41.9627 50.8288 40.8952Z" fill="white"/>
<path fill-rule="evenodd" clip-rule="evenodd" d="M51.657 1.39725C50.8288 0.482205 49.452 0.785293 48.3442 1.39727C47.2364 2.00925 5.38237 34.0327 2.84606 36.0152C0.309761 37.9977 -0.518414 38.9128 0.309761 40.7428C1.13794 42.5728 2.84606 41.6197 5.27885 39.8278C7.71163 38.0359 50.0006 5.97228 50.8288 5.05727C51.657 4.14226 52.4851 2.31229 51.657 1.39725Z" fill="white"/>
</svg>
