<svg width="57" height="50" viewBox="0 0 57 50" fill="none" xmlns="http://www.w3.org/2000/svg">
<path d="M59.1886 6.39832C57.0154 7.38207 54.6809 8.04676 52.2267 8.3472C54.759 6.79925 56.6535 4.36295 57.5568 1.4929C55.1776 2.93658 52.5737 3.95278 49.8583 4.49731C48.0323 2.50553 45.6136 1.18535 42.9779 0.741728C40.3422 0.298107 37.6368 0.755866 35.2818 2.04394C32.9269 3.332 31.054 5.37832 29.9541 7.86518C28.8542 10.352 28.5888 13.1403 29.199 15.7971C24.3782 15.5498 19.6621 14.2697 15.3569 12.04C11.0517 9.81021 7.25354 6.68058 4.20893 2.85419C3.16789 4.68874 2.5693 6.81575 2.5693 9.08102C2.56814 11.1203 3.05971 13.1283 4.00041 14.9269C4.9411 16.7256 6.30183 18.2592 7.96186 19.3917C6.03666 19.3291 4.15394 18.7977 2.4704 17.8417V18.0012C2.47021 20.8613 3.43865 23.6335 5.2114 25.8472C6.98415 28.0609 9.45203 29.5799 12.1963 30.1464C10.4103 30.6402 8.53791 30.7129 6.72043 30.3591C7.49469 32.8201 9.00288 34.9722 11.0339 36.514C13.0649 38.0558 15.517 38.9102 18.0469 38.9576C13.7522 42.4018 8.44825 44.27 2.98832 44.2618C2.02114 44.2621 1.05479 44.2044 0.0942383 44.089C5.63639 47.7293 12.0878 49.6613 18.6767 49.6538C40.9809 49.6538 53.174 30.7819 53.174 14.4145C53.174 13.8828 53.161 13.3457 53.1376 12.8139C55.5093 11.0617 57.5565 8.89197 59.1834 6.4063L59.1886 6.39832Z" fill="white" fill-opacity="0.6"/>
</svg>
